# xmcd CD database file
#
# Track frame offsets:
#	150
#	11058
#	23070
#	36383
#	46330
#	62505
#	73759
#	85544
#	96592
#	106135
#	116103
#	127787
#	140605
#	149925
#	159273
#	170863
#	183995
#	194284
#	205885
#	217563
#
# Disc length: 3190 seconds
#
# Revision: 0
# Processed by: cddbd v1.5.2PL0 Copyright (c) Steve Scherf et al.
# Submitted via: CDex 1.51
#
DISCID=200c7414
DTITLE=Various Artist - Country CD2
DYEAR=2009
DGENRE=Country
TTITLE0=Johnny Cash - Cry, Cry, Cry
TTITLE1=Jim Reeves - Mexican Joe
TTITLE2=Hank Williams - Hey, Good Lookin'
TTITLE3=Johnny Horton - Honky Tonk Man
TTITLE4=The Everly Brothers - I'm Here To Get My Baby Out Of Jail
TTITLE5=Hank Snow - A Fool Such As I
TTITLE6=Don Gibson - I Can't Stop Loving You
TTITLE7=Johnny Duncan - Last Train To San Fernando
TTITLE8=Marvin Rainwater - Baby Don't Go
TTITLE9=Johnny Cash - Get Rythm
TTITLE10=Tennessee Ernie Ford - Shotgun Boogie
TTITLE11=Hank Williams - Pan American
TTITLE12=Jim Reeves - Billy Bayou
TTITLE13=Johnny Horton - I'm Comming Home
TTITLE14=Don Gibson - Sweet Dreams
TTITLE15=Bill Haley - Yodel Your Blues Away
TTITLE16=Hank Snow - The Gold Rush Is Over
TTITLE17=Marvin Rainwater - Gonna Find Me A Bluebird
TTITLE18=Jphnny Cash - I Walk The Line
TTITLE19=The Everly Brothers - Lightnin' Express
EXTD=YEAR: 2009
EXTT0=
EXTT1=
EXTT2=
EXTT3=
EXTT4=
EXTT5=
EXTT6=
EXTT7=
EXTT8=
EXTT9=
EXTT10=
EXTT11=
EXTT12=
EXTT13=
EXTT14=
EXTT15=
EXTT16=
EXTT17=
EXTT18=
EXTT19=
PLAYORDER=
